<svg width="314" height="65" viewBox="0 0 314 65" fill="none" xmlns="http://www.w3.org/2000/svg">
<path fill-rule="evenodd" clip-rule="evenodd" d="M76.6358 13.642C78.5889 15.7897 79.6159 18.6212 79.4938 21.5215V37.3318H72.6449V22.9761C72.7132 21.3731 72.1933 19.8004 71.183 18.5539C70.7135 18.0055 70.1253 17.571 69.4629 17.2836C68.8006 16.9961 68.0816 16.8631 67.3602 16.8947C63.0867 16.8947 60.9499 19.8745 60.9499 25.8341V37.3318H54.0645V11.3761H60.9499V13.7224C62.0282 12.6738 63.309 11.8562 64.7141 11.3196C66.1192 10.7829 67.619 10.5385 69.1218 10.6013C70.5183 10.5463 71.9105 10.7889 73.206 11.3132C74.5015 11.8374 75.6707 12.6313 76.6358 13.642V13.642Z" fill="white"/>
<path fill-rule="evenodd" clip-rule="evenodd" d="M88.2358 0.2146V37.3317H95.0994V0.2146H88.2358Z" fill="white"/>
<path fill-rule="evenodd" clip-rule="evenodd" d="M133.898 37.3319H128.196L122.583 22.0406L116.911 37.3319H111.166L101.539 11.3251H108.848L114.309 26.8795L119.886 11.3251H125.236L130.813 26.9306L136.222 11.3251H143.531L133.898 37.3319Z" fill="white"/>
<path d="M40.6151 37.9897L30.5939 44.6777L8.06641 32.6392L17.9414 26.0607L28.5766 31.7474C28.5766 29.4742 28.5766 23.941 28.5766 18.9706L40.6005 10.9303C40.6005 15.8714 40.6005 28.1366 40.6151 37.9897Z" fill="#8257E5"/>
<path d="M22.2099 23.2757L11.2458 17.4282C11.2458 19.7599 11.2458 25.5416 11.2458 30.5851C6.65553 33.6623 2.54765 36.396 0.281738 37.8944C0.281738 32.8875 0.281738 20.3519 0.281738 10.4477L9.96668 3.97888L32.8304 16.2002L22.2099 23.2757Z" fill="#8257E5"/>
<path fill-rule="evenodd" clip-rule="evenodd" d="M207.73 27.5963V2.97827H213.841V11.9761H226.946V17.524H213.841V27.5963C213.841 30.9879 215.588 32.3182 218.109 32.3182C220.631 32.3182 222.371 31.039 222.371 27.5963V26.9238H228.489V27.5963C228.489 34.6352 224.271 38.0268 218.109 38.0268C211.948 38.0268 207.73 34.6352 207.73 27.5963ZM163.128 11.3039C156.506 11.3039 151.981 14.9512 151.981 22.6115L151.996 37.3545H158.107V22.6188C158.107 18.4817 160.161 17.0198 163.143 17.0198C166.125 17.0198 168.179 18.5036 168.179 22.6188V22.8746H174.246V22.7138C174.246 14.9512 169.751 11.3039 163.128 11.3039ZM190.158 11.3039C182.14 11.3039 176.49 16.954 176.49 24.6654C176.49 32.3768 182.14 38.027 190.158 38.027C196.166 38.027 200.793 34.8912 202.694 30.0597H196.166C194.88 31.7044 192.877 32.4718 190.158 32.4718C186.569 32.4718 183.733 30.5202 182.915 26.8217H203.724V24.6654C203.724 16.954 198.177 11.3039 190.158 11.3039ZM190.158 16.8224C193.499 16.8224 196.269 18.5475 197.248 21.939H183.068C184.04 18.5694 186.818 16.8224 190.158 16.8224ZM232.392 11.9762V25.1769C232.392 33.707 237.428 38.0268 244.927 38.0268C252.427 38.0268 257.463 33.6558 257.463 25.1769V11.9762H251.352V25.1769C251.352 30.0084 248.78 32.3182 244.927 32.3182C241.075 32.3182 238.503 30.0084 238.503 25.1769V11.9762H232.392ZM262.499 22.6115C262.499 14.9512 267.024 11.3039 273.646 11.3039C280.269 11.3039 284.749 14.9585 284.749 22.7138V22.8746H278.682V22.6188C278.682 18.489 276.629 17.0271 273.654 17.0271C270.679 17.0271 268.617 18.489 268.617 22.6261V37.3545H262.507L262.499 22.6115ZM300.574 11.3039C293.067 11.3039 288.031 15.6749 288.031 24.1538L288.002 37.3545H294.12V24.1538C294.12 19.3222 296.737 17.0125 300.589 17.0125C304.441 17.0125 307.006 19.3222 307.006 24.1538V37.3545H313.124V24.1538C313.124 15.6237 308.081 11.3039 300.574 11.3039ZM278.437 56.0739L282.805 60.4374L278.916 64.3333L269.487 54.9042V51.0083L278.916 41.5792L282.805 45.4678L278.256 50.0217H298.462C299.588 50.0188 300.703 49.7936 301.742 49.359C302.781 48.9244 303.725 48.2889 304.518 47.4889C305.311 46.689 305.938 45.7403 306.364 44.6974C306.79 43.6545 307.006 42.5377 306.999 41.4112V37.3545H313.124V41.4112C313.12 45.3026 311.571 49.0332 308.818 51.7828C306.064 54.5323 302.331 56.0758 298.44 56.0739H278.437Z" fill="url(#paint0_linear_102_94)"/>
<defs>
<linearGradient id="paint0_linear_102_94" x1="156.652" y1="52.9527" x2="309.265" y2="52.9527" gradientUnits="userSpaceOnUse">
<stop stop-color="#8257E5"/>
<stop offset="0.53" stop-color="#D72891"/>
<stop offset="1" stop-color="#F1594B"/>
</linearGradient>
</defs>
</svg>
